<svg width="71" height="71" fill="none" xmlns="http://www.w3.org/2000/svg"><g filter="url(#filter0_d)"><mask id="a" maskUnits="userSpaceOnUse" x="7" y="4" width="57" height="57"><rect x="7" y="4" width="57" height="57" rx="14" fill="#fff"/></mask><g mask="url(#a)"><g filter="url(#filter1_d)"><rect x="7" y="4" width="57" height="57" rx="14" fill="url(#paint0_linear)"/></g><path d="M51.768 19.768a2.5 2.5 0 0 0-3.536-3.536l3.536 3.536zM19.232 45.232a2.5 2.5 0 0 0 3.536 3.536l-3.536-3.536zm29-29l-29 29 3.536 3.536 29-29-3.536-3.536zm-4.464 21a2.5 2.5 0 0 0-3.536 3.536l3.536-3.536zm16.464 23.536a2.5 2.5 0 0 0 3.536-3.536l-3.536 3.536zm-20-20l20 20 3.536-3.536-20-20-3.536 3.536z" fill="#fff"/><path d="M22.768 16.232a2.5 2.5 0 0 0-3.536 3.536l3.536-3.536zm10.464 17.536a2.5 2.5 0 0 0 3.536-3.536l-3.536 3.536zm-14-14l14 14 3.536-3.536-14-14-3.536 3.536z" fill="#fff"/><g filter="url(#filter2_d)"><rect x="7" y="4" width="57" height="57" rx="14" fill="#fff"/></g><path d="M51.768 19.768a2.5 2.5 0 0 0-3.536-3.536l3.536 3.536zM19.232 45.232a2.5 2.5 0 0 0 3.536 3.536l-3.536-3.536zm29-29l-29 29 3.536 3.536 29-29-3.536-3.536zm-4.464 21a2.5 2.5 0 0 0-3.536 3.536l3.536-3.536zm16.464 23.536a2.5 2.5 0 0 0 3.536-3.536l-3.536 3.536zm-20-20l20 20 3.536-3.536-20-20-3.536 3.536z" fill="#6A8FCD"/><path d="M22.768 16.232a2.5 2.5 0 0 0-3.536 3.536l3.536-3.536zm10.464 17.536a2.5 2.5 0 0 0 3.536-3.536l-3.536 3.536zm-14-14l14 14 3.536-3.536-14-14-3.536 3.536z" fill="#6A8FCD"/></g></g><defs><filter id="filter0_d" x="0" y="0" width="71" height="71" filterUnits="userSpaceOnUse" color-interpolation-filters="sRGB"><feFlood flood-opacity="0" result="BackgroundImageFix"/><feColorMatrix in="SourceAlpha" values="0 0 0 0 0 0 0 0 0 0 0 0 0 0 0 0 0 0 127 0"/><feOffset dy="3"/><feGaussianBlur stdDeviation="3.5"/><feColorMatrix values="0 0 0 0 0 0 0 0 0 0 0 0 0 0 0 0 0 0 0.07 0"/><feBlend in2="BackgroundImageFix" result="effect1_dropShadow"/><feBlend in="SourceGraphic" in2="effect1_dropShadow" result="shape"/></filter><filter id="filter1_d" x="-3" y="-3" width="77" height="77" filterUnits="userSpaceOnUse" color-interpolation-filters="sRGB"><feFlood flood-opacity="0" result="BackgroundImageFix"/><feColorMatrix in="SourceAlpha" values="0 0 0 0 0 0 0 0 0 0 0 0 0 0 0 0 0 0 127 0"/><feOffset dy="3"/><feGaussianBlur stdDeviation="5"/><feColorMatrix values="0 0 0 0 0 0 0 0 0 0 0 0 0 0 0 0 0 0 0.15 0"/><feBlend in2="BackgroundImageFix" result="effect1_dropShadow"/><feBlend in="SourceGraphic" in2="effect1_dropShadow" result="shape"/></filter><filter id="filter2_d" x="-3" y="-3" width="77" height="77" filterUnits="userSpaceOnUse" color-interpolation-filters="sRGB"><feFlood flood-opacity="0" result="BackgroundImageFix"/><feColorMatrix in="SourceAlpha" values="0 0 0 0 0 0 0 0 0 0 0 0 0 0 0 0 0 0 127 0"/><feOffset dy="3"/><feGaussianBlur stdDeviation="5"/><feColorMatrix values="0 0 0 0 0 0 0 0 0 0 0 0 0 0 0 0 0 0 0.15 0"/><feBlend in2="BackgroundImageFix" result="effect1_dropShadow"/><feBlend in="SourceGraphic" in2="effect1_dropShadow" result="shape"/></filter><linearGradient id="paint0_linear" x1="35.5" y1="4" x2="35.5" y2="61" gradientUnits="userSpaceOnUse"><stop stop-color="#6A8FCD"/><stop offset="1" stop-color="#6A8FCD"/></linearGradient></defs></svg>