<svg width="261" height="40" fill="none" xmlns="http://www.w3.org/2000/svg"><path d="M131.2 38l-.05-29.95-14.65 25.3h-1.25L100.6 8.15V38h-2.5V3h2.15l15.65 27.05L131.55 3h2.1l.05 35h-2.5zm41.353-2.3V38h-24.15V3h23.4v2.3h-20.85v13.8h18.65v2.25h-18.65V35.7h21.6zM212.85 3v35h-2.1L186.9 7.6V38h-2.55V3h2.15l23.8 30.4V3h2.55zm28.423 35.25c-4.434 0-7.884-1.283-10.35-3.85-2.434-2.567-3.65-6.317-3.65-11.25V3h2.55v20.05c0 4.3.983 7.517 2.95 9.65 1.966 2.133 4.816 3.2 8.55 3.2 3.7 0 6.533-1.067 8.5-3.2 1.966-2.133 2.95-5.35 2.95-9.65V3h2.55v20.15c0 4.933-1.234 8.683-3.7 11.25-2.467 2.567-5.917 3.85-10.35 3.85z" fill="#D5D5D5"/><path d="M4.15 3h8.1v35h-8.1V3zm31.656 21.25l-4.7 4.9V38h-8.05V3h8.05v16.35L46.606 3h9l-14.5 15.6L56.456 38h-9.45l-11.2-13.75zm37.53 14.35c-2.767 0-5.45-.367-8.05-1.1-2.567-.767-4.634-1.75-6.2-2.95l2.75-6.1c1.5 1.1 3.283 1.983 5.35 2.65 2.066.667 4.133 1 6.2 1 2.3 0 4-.333 5.1-1 1.1-.7 1.65-1.617 1.65-2.75 0-.833-.334-1.517-1-2.05-.634-.567-1.467-1.017-2.5-1.35-1-.333-2.367-.7-4.1-1.1-2.667-.633-4.85-1.267-6.55-1.9-1.7-.633-3.167-1.65-4.4-3.05-1.2-1.4-1.8-3.267-1.8-5.6 0-2.033.55-3.867 1.65-5.5 1.1-1.667 2.75-2.983 4.95-3.95 2.233-.967 4.95-1.45 8.15-1.45 2.233 0 4.416.267 6.55.8 2.133.533 4 1.3 5.6 2.3l-2.5 6.15c-3.234-1.833-6.467-2.75-9.7-2.75-2.267 0-3.95.367-5.05 1.1-1.067.733-1.6 1.7-1.6 2.9s.616 2.1 1.85 2.7c1.266.567 3.183 1.133 5.75 1.7 2.666.633 4.85 1.267 6.55 1.9 1.7.633 3.15 1.633 4.35 3 1.233 1.367 1.85 3.217 1.85 5.55 0 2-.567 3.833-1.7 5.5-1.1 1.633-2.767 2.933-5 3.9-2.234.967-4.95 1.45-8.15 1.45zm26.26-.2c-1.366 0-2.516-.467-3.45-1.4-.933-.933-1.4-2.1-1.4-3.5 0-1.433.468-2.583 1.4-3.45.934-.9 2.084-1.35 3.45-1.35 1.368 0 2.518.45 3.451 1.35.933.867 1.4 2.017 1.4 3.45 0 1.4-.467 2.567-1.4 3.5-.933.933-2.083 1.4-3.45 1.4z" fill="#6A8FCD"/></svg>